<svg xmlns="http://www.w3.org/2000/svg" xmlns:xlink="http://www.w3.org/1999/xlink" viewBox="0,0,256,256" width="100px" height="100px"><g fill="none" fill-rule="nonzero" stroke="none" stroke-width="1" stroke-linecap="butt" stroke-linejoin="miter" stroke-miterlimit="10" stroke-dasharray="" stroke-dashoffset="0" font-family="none" font-weight="none" font-size="none" text-anchor="none" style="mix-blend-mode: normal"><g transform="scale(2.56,2.56)"><path d="M96,52c0,24.26 -19.74,44 -44,44c-24.26,0 -44,-19.74 -44,-44c0,-6.77 1.56,-13.42 4.54,-19.45l-7.06,-7.26c-3.51,-3.63 -3.45,-9.5 0.1,-13.05c1.72,-1.73 4.13,-2.72 6.61,-2.72c1.78,0 3.5,0.5 4.97,1.43l8.81,5.61c7.52,-5.54 16.62,-8.56 26.03,-8.56c24.26,0 44,19.74 44,44z" fill="#c8e40f" opacity="0.3"></path><path d="M94,50c0,24.26 -19.74,44 -44,44c-24.26,0 -44,-19.74 -44,-44c0,-6.77 1.56,-13.42 4.54,-19.45l-7.06,-7.26c-3.51,-3.63 -3.45,-9.5 0.1,-13.05c1.72,-1.73 4.13,-2.72 6.61,-2.72c1.78,0 3.5,0.5 4.97,1.43l8.81,5.61c7.52,-5.54 16.62,-8.56 26.03,-8.56c24.26,0 44,19.74 44,44z" fill="#f2f2f2"></path><path d="M19.192,28.629c-4.215,6.064 -6.692,13.426 -6.692,21.371c0,20.711 16.789,37.5 37.5,37.5c3.786,0 7.439,-0.567 10.884,-1.61c14.743,-15.841 0.15,-27.945 -5.634,-34.265c1.588,0.295 3.072,0.46 4.479,0.531c-5.435,-0.978 -13.483,-3.019 -20.354,-7.156c-3.094,-1.863 -12.144,-9.456 -20.183,-16.371z" fill="#9ad4fc"></path><path d="M81.474,29.624c-6.684,-10.303 -18.279,-17.124 -31.474,-17.124c-12.766,0 -24.035,6.384 -30.808,16.129c8.039,6.915 17.089,14.508 20.183,16.371c6.871,4.137 14.919,6.178 20.354,7.156c16.368,0.821 20.871,-12.76 21.745,-22.532z" fill="#f4a3be"></path><path d="M87.5,50c0,-7.515 -2.219,-14.509 -6.026,-20.376c-0.949,10.613 -6.166,25.731 -26.224,22.001c5.784,6.32 20.378,18.424 5.634,34.265c15.402,-4.665 26.616,-18.965 26.616,-35.89z" fill="#fedeb3"></path><path d="M75,64.28c0,3.87 -1.26,7.66 -3.26,10.59c-1.95,1.9 -4.15,3.53 -6.55,4.85c-4.36,2.41 -9.36,3.78 -14.69,3.78c-16.84,0 -30.5,-13.66 -30.5,-30.5c0,-2.7 0.35,-5.32 1.01,-7.81c0.23,12.64 10.55,22.81 23.24,22.81c7.09,0 13.45,-3.18 17.71,-8.19c0.34,-0.4 0.67,-0.81 0.98,-1.24l0.01,-0.01c1.28,-1.27 3.04,-2.06 4.99,-2.06c3.52,0 6.45,2.59 6.97,5.97v0.04c0.06,0.34 0.09,1.77 0.09,1.77z" fill="#9aa2e6"></path><path d="M56.499,53.819c-2.197,2.806 -9.177,4.366 -17.329,-4.227c-0.758,-0.799 -29,-31 -29,-31c-0.86,-0.888 -3.113,-3.462 -2.233,-4.342c0.437,-0.437 1.016,-0.658 1.596,-0.658c0.422,0 2.264,1.764 2.636,2c0,0 36.126,21.475 37,22c10,5.999 9.527,13.428 7.33,16.227z" fill="#707cc0"></path><path d="M50,11c-9.83,0 -18.83,3.66 -25.69,9.7l-11.83,-7.53c-1.65,-1.05 -3.96,-0.81 -5.35,0.59c-1.66,1.66 -1.68,4.37 -0.05,6.06l9.63,9.9c-3.62,5.91 -5.71,12.86 -5.71,20.28c0,21.5 17.5,39 39,39c21.5,0 39,-17.5 39,-39c0,-21.5 -17.5,-39 -39,-39zM49.204,85.991c-18.933,-0.411 -34.542,-15.821 -35.183,-34.748c-0.238,-7.034 1.554,-13.649 4.849,-19.293c0.26,-0.445 0.528,-0.885 0.804,-1.319c0.492,-0.773 0.364,-1.788 -0.275,-2.445l-0.989,-1.016l-9.18,-9.44c-0.5,-0.51 -0.49,-1.34 0.02,-1.85c0.42,-0.42 1.13,-0.49 1.63,-0.18l11.19,7.12l1.266,0.807c0.763,0.486 1.755,0.397 2.422,-0.214c0.388,-0.355 0.785,-0.702 1.192,-1.043c7.158,-5.978 16.664,-9.242 26.91,-8.167c16.719,1.753 30.16,15.17 31.932,31.887c2.318,21.865 -15.08,40.368 -36.588,39.901z" fill="#40396e"></path><path d="M50,11c-9.83,0 -18.83,3.66 -25.69,9.7l-11.83,-7.53c-1.65,-1.05 -3.96,-0.81 -5.35,0.59c-1.66,1.66 -1.68,4.37 -0.05,6.06l9.63,9.9c-3.62,5.91 -5.71,12.86 -5.71,20.28c0,21.5 17.5,39 39,39c21.5,0 39,-17.5 39,-39c0,-21.5 -17.5,-39 -39,-39zM49.204,85.991c-18.933,-0.411 -34.542,-15.821 -35.183,-34.748c-0.238,-7.034 1.554,-13.649 4.849,-19.293c0.26,-0.445 0.528,-0.885 0.804,-1.319c0.492,-0.773 0.364,-1.788 -0.275,-2.445l-0.989,-1.016l-9.18,-9.44c-0.5,-0.51 -0.49,-1.34 0.02,-1.85c0.42,-0.42 1.13,-0.49 1.63,-0.18l11.19,7.12l1.266,0.807c0.763,0.486 1.755,0.397 2.422,-0.214c0.388,-0.355 0.785,-0.702 1.192,-1.043c7.158,-5.978 16.664,-9.242 26.91,-8.167c16.719,1.753 30.16,15.17 31.932,31.887c2.318,21.865 -15.08,40.368 -36.588,39.901z" fill="#40396e"></path><path d="M62.125,62.5l-12.125,-8.5c0,0 -0.5,-4.375 5,-6c5.75,5 12.625,10 12.625,10z" fill="#f2f2f2"></path><path d="M75,64.28c0,3.87 -1.26,7.66 -3.26,10.59c-1.95,1.9 -4.15,3.53 -6.55,4.85c0.79,-1.23 1.52,-3.38 1.52,-4.82c0,-2.14 -0.97,-4.06 -2.49,-5.35c-0.24,-0.2 -0.36,-0.22 -0.8,-0.57c-1.55,-1.28 -2.55,-3.23 -2.55,-5.42c0,-1.38 0.39,-2.67 1.09,-3.75c0.27,-0.45 0.6,-0.87 0.98,-1.24l0.01,-0.01c1.28,-1.27 3.04,-2.06 4.99,-2.06c3.52,0 6.45,2.59 6.97,5.97v0.04c0.06,0.34 0.09,1.77 0.09,1.77z" fill="#707cc0"></path></g></g><g fill="#000000" fill-rule="nonzero" stroke="none" stroke-width="1" stroke-linecap="butt" stroke-linejoin="miter" stroke-miterlimit="10" stroke-dasharray="" stroke-dashoffset="0" font-family="none" font-weight="none" font-size="none" text-anchor="none" style="mix-blend-mode: normal"><g><path d="M16.942,241.684h-2.54v-12.91h-2.36v-1.97h2.36v-1.52c0,-1.6 0.42667,-2.83333 1.28,-3.7c0.84667,-0.87333 2.05,-1.31 3.61,-1.31v0c0.58667,0 1.17,0.07667 1.75,0.23v0l-0.14,2.07c-0.43333,-0.08667 -0.89333,-0.13 -1.38,-0.13v0c-0.82,0 -1.45667,0.24333 -1.91,0.73c-0.44667,0.48 -0.67,1.16667 -0.67,2.06v0v1.57h3.18v1.97h-3.18zM32.162,241.684l-0.05,-1.47c-0.99333,1.16 -2.44667,1.74 -4.36,1.74v0c-1.58667,0 -2.79667,-0.46 -3.63,-1.38c-0.82667,-0.92 -1.24333,-2.28333 -1.25,-4.09v0v-9.68h2.54v9.61c0,2.26 0.91667,3.39 2.75,3.39v0c1.94,0 3.23333,-0.72667 3.88,-2.18v0v-10.82h2.54v14.88zM49.132,228.604l-8.29,11h8.7v2.08h-11.81v-1.87l8.21,-10.9h-8.09v-2.11h11.28zM63.082,228.604l-8.29,11h8.71v2.08h-11.81v-1.87l8.2,-10.9h-8.08v-2.11h11.27zM67.512,226.804l3.71,11.15l3.47,-11.15h2.72l-5.98,17.18c-0.92667,2.47333 -2.39667,3.71 -4.41,3.71v0l-0.48,-0.04l-0.95,-0.18v-2.06l0.68,0.05c0.86667,0 1.54,-0.17333 2.02,-0.52c0.48,-0.34667 0.87667,-0.98333 1.19,-1.91v0l0.56,-1.51l-5.31,-14.72zM84.972,232.144v2.07h-6.7v-2.07zM100.022,234.174v0.24c0,2.26 -0.52,4.08333 -1.56,5.47c-1.03333,1.38 -2.43333,2.07 -4.2,2.07v0c-1.80667,0 -3.23,-0.57 -4.27,-1.71v0v7.16h-2.54v-20.6h2.32l0.13,1.65c1.03333,-1.28 2.47,-1.92 4.31,-1.92v0c1.79333,0 3.21,0.67333 4.25,2.02c1.04,1.34667 1.56,3.22 1.56,5.62zM97.472,234.124v0c0,-1.68 -0.35667,-3.00667 -1.07,-3.98c-0.71333,-0.96667 -1.69333,-1.45 -2.94,-1.45v0c-1.54,0 -2.69667,0.68 -3.47,2.04v0v7.11c0.76,1.36 1.92667,2.04 3.5,2.04v0c1.21333,0 2.18,-0.48333 2.9,-1.45c0.72,-0.96667 1.08,-2.40333 1.08,-4.31zM102.572,234.284v-0.18c0,-1.45333 0.28667,-2.76333 0.86,-3.93c0.57333,-1.16667 1.37333,-2.06333 2.4,-2.69c1.02,-0.63333 2.18667,-0.95 3.5,-0.95v0c2.02,0 3.65667,0.7 4.91,2.1c1.25333,1.4 1.88,3.26667 1.88,5.6v0v0.18c0,1.44667 -0.27667,2.74333 -0.83,3.89c-0.56,1.15333 -1.35333,2.05 -2.38,2.69c-1.03333,0.64 -2.22,0.96 -3.56,0.96v0c-2.01333,0 -3.64667,-0.7 -4.9,-2.1c-1.25333,-1.4 -1.88,-3.25667 -1.88,-5.57zM105.132,234.414v0c0,1.64667 0.38333,2.97 1.15,3.97c0.76667,1 1.79,1.5 3.07,1.5v0c1.29333,0 2.32,-0.50667 3.08,-1.52c0.76,-1.01333 1.14,-2.43333 1.14,-4.26v0c0,-1.62667 -0.38667,-2.94667 -1.16,-3.96c-0.77333,-1.01333 -1.8,-1.52 -3.08,-1.52v0c-1.26,0 -2.27333,0.5 -3.04,1.5c-0.77333,0.99333 -1.16,2.42333 -1.16,4.29zM120.222,223.204h2.54v3.6h2.78v1.97h-2.78v9.23c0,0.59333 0.12333,1.04 0.37,1.34c0.24667,0.29333 0.67,0.44 1.27,0.44v0c0.29333,0 0.69667,-0.05333 1.21,-0.16v0v2.06c-0.67333,0.18 -1.32667,0.27 -1.96,0.27v0c-1.13333,0 -1.99,-0.34333 -2.57,-1.03c-0.57333,-0.68667 -0.86,-1.66 -0.86,-2.92v0v-9.23h-2.71v-1.97h2.71zM140.362,241.684h-2.67c-0.14667,-0.29333 -0.26667,-0.81667 -0.36,-1.57v0c-1.18,1.22667 -2.59,1.84 -4.23,1.84v0c-1.46667,0 -2.67,-0.41333 -3.61,-1.24c-0.94,-0.82667 -1.41,-1.87667 -1.41,-3.15v0c0,-1.55333 0.59,-2.75667 1.77,-3.61c1.17333,-0.86 2.83,-1.29 4.97,-1.29v0h2.47v-1.17c0,-0.88667 -0.26333,-1.59333 -0.79,-2.12c-0.53333,-0.52667 -1.32,-0.79 -2.36,-0.79v0c-0.90667,0 -1.66667,0.22667 -2.28,0.68c-0.61333,0.46 -0.92,1.01667 -0.92,1.67v0h-2.56c0,-0.74667 0.26333,-1.46333 0.79,-2.15c0.52667,-0.69333 1.24333,-1.24333 2.15,-1.65c0.9,-0.4 1.89333,-0.6 2.98,-0.6v0c1.71333,0 3.05333,0.42667 4.02,1.28c0.97333,0.86 1.48,2.04 1.52,3.54v0v6.85c0,1.36667 0.17333,2.45333 0.52,3.26v0zM133.472,239.744v0c0.8,0 1.55667,-0.20667 2.27,-0.62c0.71333,-0.41333 1.23,-0.95 1.55,-1.61v0v-3.05h-1.99c-3.11333,0 -4.67,0.91333 -4.67,2.74v0c0,0.79333 0.26333,1.41667 0.79,1.87c0.53333,0.44667 1.21667,0.67 2.05,0.67zM144.732,223.204h2.55v3.6h2.77v1.97h-2.77v9.23c0,0.59333 0.12333,1.04 0.37,1.34c0.24667,0.29333 0.66667,0.44 1.26,0.44v0c0.29333,0 0.69667,-0.05333 1.21,-0.16v0v2.06c-0.66667,0.18 -1.31667,0.27 -1.95,0.27v0c-1.13333,0 -1.99,-0.34333 -2.57,-1.03c-0.58,-0.68667 -0.87,-1.66 -0.87,-2.92v0v-9.23h-2.71v-1.97h2.71zM152.072,234.284v-0.18c0,-1.45333 0.28667,-2.76333 0.86,-3.93c0.57333,-1.16667 1.37333,-2.06333 2.4,-2.69c1.02,-0.63333 2.18667,-0.95 3.5,-0.95v0c2.02,0 3.65667,0.7 4.91,2.1c1.25333,1.4 1.88,3.26667 1.88,5.6v0v0.18c0,1.44667 -0.27667,2.74333 -0.83,3.89c-0.56,1.15333 -1.35333,2.05 -2.38,2.69c-1.03333,0.64 -2.22,0.96 -3.56,0.96v0c-2.01333,0 -3.64667,-0.7 -4.9,-2.1c-1.25333,-1.4 -1.88,-3.25667 -1.88,-5.57zM154.632,234.414v0c0,1.64667 0.38333,2.97 1.15,3.97c0.76667,1 1.79,1.5 3.07,1.5v0c1.29333,0 2.32,-0.50667 3.08,-1.52c0.76,-1.01333 1.14,-2.43333 1.14,-4.26v0c0,-1.62667 -0.38667,-2.94667 -1.16,-3.96c-0.77333,-1.01333 -1.8,-1.52 -3.08,-1.52v0c-1.26,0 -2.27333,0.5 -3.04,1.5c-0.77333,0.99333 -1.16,2.42333 -1.16,4.29z"></path></g></g></svg>